<?xml version="1.0" encoding="UTF-8"?>
<!--
  taro-bluetooth-print · logo (dark / inverse variant)
  For dark backgrounds where the gradient plate would clash.
-->
<svg xmlns="http://www.w3.org/2000/svg" viewBox="0 0 240 240" role="img"
     aria-label="taro-bluetooth-print logo (dark variant)">
  <defs>
    <linearGradient id="bp-grad-dark" x1="0%" y1="0%" x2="100%" y2="100%">
      <stop offset="0%"   stop-color="#a5b4fc"/>
      <stop offset="55%"  stop-color="#c4b5fd"/>
      <stop offset="100%" stop-color="#67e8f9"/>
    </linearGradient>
  </defs>
  <rect x="8" y="8" width="224" height="224" rx="48" fill="#0f172a"/>
  <rect x="8" y="8" width="224" height="224" rx="48" fill="none"
        stroke="url(#bp-grad-dark)" stroke-width="2"/>
  <g fill="none" stroke="url(#bp-grad-dark)" stroke-linecap="round">
    <path d="M 168 36 Q 196 36 196 64" stroke-width="4"/>
    <path d="M 160 24 Q 208 24 208 72" stroke-width="4" stroke-opacity="0.6"/>
  </g>
  <circle cx="178" cy="50" r="4" fill="#67e8f9"/>
  <g transform="translate(46, 56)">
    <path d="M 4 0 C 4 0, 8 -6, 14 -6 L 134 -6 C 140 -6, 144 0, 144 0 L 144 144 L 4 144 Z"
          fill="#1e293b" stroke="url(#bp-grad-dark)" stroke-width="1.5"/>
    <rect x="20" y="18" width="108" height="12" rx="2" fill="url(#bp-grad-dark)"/>
    <rect x="20" y="40" width="108" height="6" rx="2" fill="#cbd5e1"/>
    <rect x="20" y="52" width="84"  height="6" rx="2" fill="#cbd5e1"/>
    <rect x="20" y="64" width="96"  height="6" rx="2" fill="#cbd5e1"/>
    <g fill="url(#bp-grad-dark)">
      <rect x="20" y="78" width="10" height="10"/><rect x="34" y="78" width="10" height="10"/>
      <rect x="48" y="78" width="10" height="10"/><rect x="74" y="78" width="10" height="10"/>
      <rect x="98" y="78" width="10" height="10"/><rect x="20" y="92" width="10" height="10"/>
      <rect x="62" y="92" width="10" height="10"/><rect x="98" y="92" width="10" height="10"/>
      <rect x="34" y="106" width="10" height="10"/><rect x="48" y="106" width="10" height="10"/>
      <rect x="74" y="106" width="10" height="10"/><rect x="20" y="120" width="10" height="10"/>
      <rect x="62" y="120" width="10" height="10"/><rect x="86" y="120" width="10" height="10"/>
      <rect x="110" y="120" width="10" height="10"/><rect x="34" y="134" width="10" height="10"/>
      <rect x="48" y="134" width="10" height="10"/><rect x="74" y="134" width="10" height="10"/>
      <rect x="98" y="134" width="10" height="10"/>
    </g>
  </g>
</svg>
